# xmcd
#
# Track frame offsets: 
#        150
#        39932
#        61482
#        82202
#        100957
#        116378
#        144627
#        165096
#        184125
#        206308
#
# Disc length: 3119 seconds
#
# Revision: 0
# Processed by: cddbd v1.5.2PL0 Copyright (c) Steve Scherf et al.
# Submitted via: ExactAudioCopyFreeDBPlugin 1.0
#
DISCID=7f0c2d0a
DTITLE=Brutal Hand - Purgatory's rage
DYEAR=2009
DGENRE=Heavy Metal
TTITLE0=Purgatory
TTITLE1=Six
TTITLE2=Karma
TTITLE3=Dying sun
TTITLE4=Stand on it
TTITLE5=Sandra
TTITLE6=Blame
TTITLE7=Earth
TTITLE8=Fire son
TTITLE9=Metal rules
EXTD=
EXTT0=
EXTT1=
EXTT2=
EXTT3=
EXTT4=
EXTT5=
EXTT6=
EXTT7=
EXTT8=
EXTT9=
PLAYORDER=
